{"title":"8 Simple Rules 1x11 Paul Meets His Match DVDRip_XviD-FoV","uid":7514419,"size":183824386,"categoryP":"video","categoryS":"tv_shows","magnet":"?xt=urn:btih:93dafbe433f48bfca72e6b14b215e6bab9e1f538&amp;dn=8+Simple+Rules+1x11+Paul+Meets+His+Match+DVDRip_XviD-FoV&amp;tr=udp%3A%2F%2Ftracker.openbittorrent.com%3A80&amp;tr=udp%3A%2F%2Fopen.demonii.com%3A1337&amp;tr=udp%3A%2F%2Ftracker.coppersurfer.tk%3A6969&amp;tr=udp%3A%2F%2Fexodus.desync.com%3A6969","seeders":0,"leechers":1,"uploader":"Mowale3_Elnet","files":1,"time":1344386982,"description":"Format                                   : AVI\nFormat/Info                              : Audio Video Interleave\nFile size                                : 175 MiB\nDuration                                 : 21mn 22s\nOverall bit rate mode                    : Variable\nOverall bit rate                         : 1 146 Kbps\nWriting application                      : Nandub v1.0rc2\nWriting library                          : Nandub build 1853/release\n\nVideo\nID                                       : 0\nFormat                                   : MPEG-4 Visual\nFormat profile                           : Advanced Simple@L5\nFormat settings, BVOP                    : 2\nFormat settings, QPel                    : No\nFormat settings, GMC                     : No warppoints\nFormat settings, Matrix                  : Default (H.263)\nMuxing mode                              : Packed bitstream\nCodec ID                                 : XVID\nCodec ID/Hint                            : XviD\nDuration                                 : 21mn 22s\nBit rate                                 : 999 Kbps\nWidth                                    : 624 pixels\nHeight                                   : 352 pixels\nDisplay aspect ratio                     : 16:9\nFrame rate                               : 23.976 fps\nColor space                              : YUV\nChroma subsampling                       : 4:2:0\nBit depth                                : 8 bits\nScan type                                : Progressive\nCompression mode                         : Lossy\nBits/(Pixel*Frame)                       : 0.190\nStream size                              : 153 MiB (87%)\nWriting library                          : XviD 1.2.0SMP (UTC 2006-01-08)\n\nAudio\nID                                       : 1\nFormat                                   : MPEG Audio\nFormat version                           : Version 1\nFormat profile                           : Layer 3\nMode                                     : Joint stereo\nMode extension                           : MS Stereo\nCodec ID                                 : 55\nCodec ID/Hint                            : MP3\nDuration                                 : 21mn 22s\nBit rate mode                            : Variable\nBit rate                                 : 134 Kbps\nChannel(s)                               : 2 channels\nSampling rate                            : 48.0 KHz\nCompression mode                         : Lossy\nDelay relative to video                  : 8ms\nStream size                              : 20.5 MiB (12%)\nAlignment                                : Aligned on interleaves\nInterleave, duration                     : 24 ms (0.58 video frame)\nInterleave, preload duration             : 366 ms\nWriting library                          : LAME3.96.1","torrent":{"xt":"urn:btih:93dafbe433f48bfca72e6b14b215e6bab9e1f538","amp;dn":"8+Simple+Rules+1x11+Paul+Meets+His+Match+DVDRip_XviD-FoV","amp;tr":["udp%3A%2F%2Ftracker.openbittorrent.com%3A80","udp%3A%2F%2Fopen.demonii.com%3A1337","udp%3A%2F%2Ftracker.coppersurfer.tk%3A6969","udp%3A%2F%2Fexodus.desync.com%3A6969"],"infoHash":"93dafbe433f48bfca72e6b14b215e6bab9e1f538","infoHashBuffer":{"type":"Buffer","data":[147,218,251,228,51,244,139,252,167,46,107,20,178,21,230,186,185,225,245,56]},"announce":[],"urlList":[]}}